<svg xmlns="http://www.w3.org/2000/svg" width="1440" height="726.636" viewBox="0 0 1440 726.636"><defs><style>.a{opacity:0.462;mix-blend-mode:overlay;isolation:isolate;}.b{fill:#023BB6;}.c{fill:#012169;}.d{fill:#00b140;}.e{fill:#00b5e2;}.f{fill:#753bbd;}.g{fill:#5bc7e2;}.h{fill:#023096;}</style></defs><g transform="translate(0 124.818)"><g class="a" transform="translate(-8.485 -129.175)"><path class="b" d="M425.453,222.03a6.447,6.447,0,1,0,6.427,6.433A6.459,6.459,0,0,0,425.453,222.03Z" transform="translate(923.024 496.07)"/><path class="b" d="M440.465,207.8a8.309,8.309,0,1,0,0,16.618,8.309,8.309,0,1,0,0-16.618Z" transform="translate(952.858 463.647)"/><path class="b" d="M428.237,207.149a10.437,10.437,0,1,0,10.467,10.44A10.435,10.435,0,0,0,428.237,207.149Z" transform="translate(920.239 462.157)"/><path class="b" d="M414.826,207.036a10.809,10.809,0,1,0,10.808,10.811A10.791,10.791,0,0,0,414.826,207.036Z" transform="translate(888.83 461.899)"/><path class="b" d="M396.655,209.043a4.227,4.227,0,1,0,0,8.453,4.227,4.227,0,0,0,0-8.453Z" transform="translate(862.214 466.473)"/><path class="b" d="M342.869,208.627a5.607,5.607,0,1,0,5.558,5.594A5.607,5.607,0,0,0,342.869,208.627Z" transform="translate(739.851 465.525)"/><path class="b" d="M261.452,208.362a6.476,6.476,0,1,0,6.463,6.463A6.473,6.473,0,0,0,261.452,208.362Z" transform="translate(554.682 464.921)"/><path class="b" d="M454.116,194.125a8.34,8.34,0,1,0,8.355,8.292A8.311,8.311,0,0,0,454.116,194.125Z" transform="translate(984.027 432.475)"/><path class="b" d="M440.465,194.125a8.34,8.34,0,0,0,0,16.68,8.34,8.34,0,1,0,0-16.68Z" transform="translate(952.858 432.475)"/><path class="b" d="M429.315,193.027A11.926,11.926,0,1,0,441.3,204.92,11.986,11.986,0,0,0,429.315,193.027Z" transform="translate(919.161 429.973)"/><path class="b" d="M416.077,192.846a12.532,12.532,0,1,0,12.549,12.486A12.546,12.546,0,0,0,416.077,192.846Z" transform="translate(887.579 429.561)"/><path class="b" d="M402.4,192.846a12.532,12.532,0,1,0,12.549,12.486A12.481,12.481,0,0,0,402.4,192.846Z" transform="translate(856.471 429.561)"/><path class="b" d="M388.277,193.027a11.926,11.926,0,1,0,11.991,11.893A11.919,11.919,0,0,0,388.277,193.027Z" transform="translate(825.71 429.973)"/><path class="b" d="M371.012,194.617a6.71,6.71,0,1,0,6.712,6.679A6.741,6.741,0,0,0,371.012,194.617Z" transform="translate(798.187 433.597)"/><path class="b" d="M356.339,195.072a5.2,5.2,0,1,0,5.187,5.187A5.257,5.257,0,0,0,356.339,195.072Z" transform="translate(770.868 434.634)"/><path class="b" d="M343.386,194.732a6.335,6.335,0,1,0,6.3,6.3A6.313,6.313,0,0,0,343.386,194.732Z" transform="translate(739.331 433.859)"/><path class="b" d="M330.41,194.428a7.33,7.33,0,1,0,7.332,7.3A7.32,7.32,0,0,0,330.41,194.428Z" transform="translate(707.876 433.166)"/><path class="b" d="M316.96,194.315a7.717,7.717,0,0,0,0,15.434,7.717,7.717,0,1,0,0-15.434Z" transform="translate(676.84 432.908)"/><path class="b" d="M302.8,194.542a6.956,6.956,0,1,0,6.988,6.925A7,7,0,0,0,302.8,194.542Z" transform="translate(646.605 433.426)"/><path class="b" d="M287.321,195.338a4.332,4.332,0,1,0,4.348,4.315A4.332,4.332,0,0,0,287.321,195.338Z" transform="translate(617.667 435.24)"/><path class="b" d="M274.311,195.034a5.328,5.328,0,0,0,0,10.657,5.329,5.329,0,1,0,0-10.657Z" transform="translate(586.219 434.547)"/><path class="b" d="M261.625,194.617a6.71,6.71,0,1,0,6.709,6.679A6.717,6.717,0,0,0,261.625,194.617Z" transform="translate(554.509 433.597)"/><path class="b" d="M249.068,194.125a8.34,8.34,0,0,0,0,16.68,8.34,8.34,0,0,0,0-16.68Z" transform="translate(522.609 432.475)"/><path class="b" d="M455.431,179.888a10.188,10.188,0,1,0,10.217,10.221A10.241,10.241,0,0,0,455.431,179.888Z" transform="translate(982.712 400.03)"/><path class="b" d="M441.739,179.888a10.188,10.188,0,1,0,10.188,10.221A10.194,10.194,0,0,0,441.739,179.888Z" transform="translate(951.584 400.03)"/><path class="b" d="M429.942,179.036a12.95,12.95,0,1,0,12.981,13.014A12.917,12.917,0,0,0,429.942,179.036Z" transform="translate(918.534 398.088)"/><path class="b" d="M415.605,179.338a11.96,11.96,0,1,0,11.929,12.024A11.967,11.967,0,0,0,415.605,179.338Z" transform="translate(888.051 398.776)"/><path class="b" d="M403.715,178.61a14.378,14.378,0,1,0,14.378,14.411A14.407,14.407,0,0,0,403.715,178.61Z" transform="translate(855.154 397.117)"/><path class="b" d="M389.487,178.827a13.667,13.667,0,1,0,13.7,13.7A13.655,13.655,0,0,0,389.487,178.827Z" transform="translate(824.499 397.612)"/><path class="b" d="M374.271,179.491a11.445,11.445,0,1,0,11.4,11.522A11.436,11.436,0,0,0,374.271,179.491Z" transform="translate(797.297 399.125)"/><path class="b" d="M361,179.338a11.96,11.96,0,1,0,11.9,12.024A11.986,11.986,0,0,0,361,179.338Z" transform="translate(766.172 398.776)"/><path class="b" d="M343.906,180.826a7.1,7.1,0,1,0,7.112,7.145A7.111,7.111,0,0,0,343.906,180.826Z" transform="translate(738.807 402.167)"/><path class="b" d="M330.863,180.57a7.952,7.952,0,1,0,7.984,7.984A8,8,0,0,0,330.863,180.57Z" transform="translate(707.42 401.584)"/><path class="b" d="M317.65,180.343a8.7,8.7,0,1,0,8.758,8.729A8.723,8.723,0,0,0,317.65,180.343Z" transform="translate(676.146 401.067)"/><path class="b" d="M303.408,180.608a7.843,7.843,0,1,0,7.86,7.86A7.842,7.842,0,0,0,303.408,180.608Z" transform="translate(645.999 401.671)"/><path class="b" d="M290.949,180.078a9.566,9.566,0,1,0,9.6,9.6A9.558,9.558,0,0,0,290.949,180.078Z" transform="translate(614.028 400.463)"/><path class="b" d="M277.422,180a9.814,9.814,0,1,0,9.876,9.847A9.836,9.836,0,0,0,277.422,180Z" transform="translate(583.101 400.289)"/><path class="b" d="M262.078,180.751a7.36,7.36,0,1,0,7.3,7.391A7.342,7.342,0,0,0,262.078,180.751Z" transform="translate(554.055 401.996)"/><path class="b" d="M249.155,180.419A8.447,8.447,0,1,0,257.6,188.9,8.461,8.461,0,0,0,249.155,180.419Z" transform="translate(522.522 401.24)"/><path class="b" d="M235.576,180.381a8.571,8.571,0,1,0,8.584,8.6A8.588,8.588,0,0,0,235.576,180.381Z" transform="translate(491.679 401.153)"/><path class="b" d="M221.225,180.674a7.611,7.611,0,1,0,7.594,7.643A7.609,7.609,0,0,0,221.225,180.674Z" transform="translate(461.604 401.821)"/><path class="b" d="M206.545,181.139a6.088,6.088,0,1,0,6.027,6.119A6.1,6.1,0,0,0,206.545,181.139Z" transform="translate(431.873 402.881)"/><path class="b" d="M188.7,182.948c-.062,0-.138.062-.138.187,0,.059.075.059.138.059s.125,0,.125-.059C188.825,183.01,188.763,182.948,188.7,182.948Z" transform="translate(405.251 407.003)"/><path class="b" d="M455.517,166.162a10.329,10.329,0,1,0,10.342,10.345A10.334,10.334,0,0,0,455.517,166.162Z" transform="translate(982.626 368.749)"/><path class="b" d="M441.826,166.162a10.329,10.329,0,1,0,10.312,10.345A10.327,10.327,0,0,0,441.826,166.162Z" transform="translate(951.497 368.749)"/><path class="b" d="M430.222,165.254a13.308,13.308,0,1,0,13.29,13.322A13.286,13.286,0,0,0,430.222,165.254Z" transform="translate(918.254 366.679)"/><path class="b" d="M417.264,164.95a14.3,14.3,0,1,0,14.319,14.319A14.255,14.255,0,0,0,417.264,164.95Z" transform="translate(886.392 365.986)"/><path class="b" d="M404.492,164.581a15.529,15.529,0,1,0,15.5,15.529A15.562,15.562,0,0,0,404.492,164.581Z" transform="translate(854.377 365.145)"/><path class="b" d="M387.844,165.879a11.306,11.306,0,1,0,11.371,11.273A11.3,11.3,0,0,0,387.844,165.879Z" transform="translate(826.143 368.104)"/><path class="b" d="M374.618,165.7a11.911,11.911,0,1,0,11.9,11.863A11.875,11.875,0,0,0,374.618,165.7Z" transform="translate(796.948 367.693)"/><path class="b" d="M361.175,165.6a12.2,12.2,0,1,0,12.175,12.2A12.235,12.235,0,0,0,361.175,165.6Z" transform="translate(765.998 367.456)"/><path class="b" d="M346.734,165.917a11.181,11.181,0,1,0,11.149,11.148A11.18,11.18,0,0,0,346.734,165.917Z" transform="translate(735.962 368.19)"/><path class="b" d="M332.762,166.068a10.67,10.67,0,1,0,10.686,10.653A10.723,10.723,0,0,0,332.762,166.068Z" transform="translate(705.512 368.534)"/><path class="b" d="M318.232,166.409a9.566,9.566,0,1,0,9.594,9.535A9.507,9.507,0,0,0,318.232,166.409Z" transform="translate(675.562 369.311)"/><path class="c" d="M303.494,166.892a7.966,7.966,0,1,0,7.952,7.952A7.946,7.946,0,0,0,303.494,166.892Z" transform="translate(645.912 370.412)"/><path class="b" d="M291.143,166.315a9.829,9.829,0,1,0,9.817,9.843A9.848,9.848,0,0,0,291.143,166.315Z" transform="translate(613.834 369.097)"/><path class="b" d="M277.422,166.315a9.829,9.829,0,1,0,9.876,9.843A9.854,9.854,0,0,0,277.422,166.315Z" transform="translate(583.101 369.097)"/><path class="b" d="M264.063,166.219a10.175,10.175,0,1,0,10.158,10.158A10.175,10.175,0,0,0,264.063,166.219Z" transform="translate(552.067 368.878)"/><path class="b" d="M250.711,166.068a10.67,10.67,0,1,0,10.683,10.653A10.66,10.66,0,0,0,250.711,166.068Z" transform="translate(520.965 368.534)"/><path class="b" d="M235.66,166.675a8.7,8.7,0,1,0,8.709,8.663A8.673,8.673,0,0,0,235.66,166.675Z" transform="translate(491.595 369.918)"/><path class="b" d="M221.138,167.025a7.5,7.5,0,0,0,0,15,7.5,7.5,0,0,0,0-15Z" transform="translate(461.691 370.715)"/><path class="b" d="M206.545,167.47a6.058,6.058,0,1,0,0,12.116,6.058,6.058,0,0,0,0-12.116Z" transform="translate(431.873 371.729)"/><path class="b" d="M191.7,167.953a4.488,4.488,0,1,0,4.427,4.473A4.492,4.492,0,0,0,191.7,167.953Z" transform="translate(402.257 372.83)"/><path class="b" d="M177.127,168.37a3.139,3.139,0,1,0,3.076,3.105A3.11,3.11,0,0,0,177.127,168.37Z" transform="translate(372.405 373.78)"/><path class="b" d="M455.235,152.608a9.955,9.955,0,1,0,9.971,9.939A9.919,9.919,0,0,0,455.235,152.608Z" transform="translate(982.908 337.859)"/><path class="b" d="M441.611,152.608a9.955,9.955,0,1,0,9.939,9.939A9.956,9.956,0,0,0,441.611,152.608Z" transform="translate(951.712 337.859)"/><path class="b" d="M429.856,151.746a12.8,12.8,0,1,0,12.795,12.765A12.778,12.778,0,0,0,429.856,151.746Z" transform="translate(918.621 335.895)"/><path class="b" d="M403.564,151.32a14.209,14.209,0,1,0,14.162,14.162A14.228,14.228,0,0,0,403.564,151.32Z" transform="translate(855.304 334.924)"/><path class="b" d="M389.293,151.566a13.4,13.4,0,1,0,13.417,13.355A13.364,13.364,0,0,0,389.293,151.566Z" transform="translate(824.693 335.485)"/><path class="b" d="M374.358,152.115A11.586,11.586,0,1,0,385.88,163.67,11.532,11.532,0,0,0,374.358,152.115Z" transform="translate(797.21 336.736)"/><path class="b" d="M359.878,152.495a10.342,10.342,0,1,0,10.25,10.309A10.337,10.337,0,0,0,359.878,152.495Z" transform="translate(767.304 337.602)"/><path class="b" d="M346.647,152.267a11.088,11.088,0,1,0,11.027,11.057A11.035,11.035,0,0,0,346.647,152.267Z" transform="translate(736.049 337.082)"/><path class="b" d="M332.588,152.457A10.467,10.467,0,1,0,343,162.891,10.484,10.484,0,0,0,332.588,152.457Z" transform="translate(705.686 337.515)"/><path class="b" d="M318.147,152.75a9.452,9.452,0,0,0-9.381,9.473,9.425,9.425,0,0,0,18.851,0A9.468,9.468,0,0,0,318.147,152.75Z" transform="translate(675.647 338.183)"/><path class="b" d="M303.214,153.347a7.578,7.578,0,0,0,0,15.155,7.578,7.578,0,1,0,0-15.155Z" transform="translate(646.193 339.544)"/><path class="b" d="M290.949,152.712a9.6,9.6,0,1,0,9.6,9.6A9.6,9.6,0,0,0,290.949,152.712Z" transform="translate(614.028 338.096)"/><path class="b" d="M277.335,152.674a9.722,9.722,0,1,0,9.722,9.722A9.745,9.745,0,0,0,277.335,152.674Z" transform="translate(583.188 338.01)"/><path class="b" d="M263.8,152.636a9.847,9.847,0,1,0,9.784,9.847A9.886,9.886,0,0,0,263.8,152.636Z" transform="translate(552.327 337.923)"/><path class="b" d="M250.082,152.636a9.847,9.847,0,1,0,9.817,9.847A9.835,9.835,0,0,0,250.082,152.636Z" transform="translate(521.594 337.923)"/><path class="b" d="M235.229,153.2a8.074,8.074,0,1,0,8.073,8.014A8.069,8.069,0,0,0,235.229,153.2Z" transform="translate(492.026 339.197)"/><path class="d" d="M220.867,153.5a7.012,7.012,0,0,0-7.079,7.017,7.09,7.09,0,1,0,7.079-7.017Z" transform="translate(461.961 339.89)"/><path class="b" d="M205.77,154.133a4.986,4.986,0,1,0,4.938,4.938A4.969,4.969,0,0,0,205.77,154.133Z" transform="translate(432.647 341.335)"/><path class="b" d="M193.017,153.716a6.353,6.353,0,1,0,6.322,6.305A6.317,6.317,0,0,0,193.017,153.716Z" transform="translate(400.945 340.384)"/><path class="b" d="M178.337,154.171a4.861,4.861,0,1,0,4.83,4.814A4.874,4.874,0,0,0,178.337,154.171Z" transform="translate(371.198 341.421)"/><path class="b" d="M163.551,154.616a3.351,3.351,0,0,0-3.305,3.354,3.314,3.314,0,1,0,3.305-3.354Z" transform="translate(341.507 342.436)"/><path class="b" d="M150.918,154.209a4.705,4.705,0,1,0,4.705,4.689A4.736,4.736,0,0,0,150.918,154.209Z" transform="translate(309.75 341.508)"/><path class="b" d="M137.365,154.133a4.986,4.986,0,1,0,4.955,4.938A4.956,4.956,0,0,0,137.365,154.133Z" transform="translate(278.83 341.335)"/><path class="b" d="M125.51,153.347a7.578,7.578,0,1,0,7.6,7.515A7.545,7.545,0,0,0,125.51,153.347Z" transform="translate(246.269 339.544)"/><path class="b" d="M111.815,153.385a7.493,7.493,0,0,0-7.532,7.391,7.575,7.575,0,0,0,7.532,7.515,7.5,7.5,0,0,0,7.407-7.515A7.413,7.413,0,0,0,111.815,153.385Z" transform="translate(215.558 339.63)"/><path class="b" d="M97.375,153.678a6.478,6.478,0,0,0,0,12.955,6.478,6.478,0,0,0,0-12.955Z" transform="translate(187.894 340.298)"/><path class="b" d="M82.378,154.284a4.458,4.458,0,1,0,4.44,4.443A4.457,4.457,0,0,0,82.378,154.284Z" transform="translate(158.103 341.679)"/><path class="b" d="M68.208,154.474a3.837,3.837,0,1,0,3.879,3.82A3.871,3.871,0,0,0,68.208,154.474Z" transform="translate(127.394 342.112)"/><path class="b" d="M55.864,153.906a5.7,5.7,0,0,0-5.715,5.682,5.7,5.7,0,1,0,11.4,0A5.7,5.7,0,0,0,55.864,153.906Z" transform="translate(94.951 340.818)"/><path class="b" d="M43.49,153.347a7.578,7.578,0,1,0,7.532,7.515A7.553,7.553,0,0,0,43.49,153.347Z" transform="translate(62.505 339.544)"/><path class="b" d="M28.6,153.868a5.846,5.846,0,0,0-5.84,5.807,5.84,5.84,0,1,0,5.84-5.807Z" transform="translate(32.541 340.731)"/><path class="b" d="M454.718,139.176a9.193,9.193,0,1,0,9.224,9.161A9.137,9.137,0,0,0,454.718,139.176Z" transform="translate(983.426 307.248)"/><path class="b" d="M441.092,139.176a9.193,9.193,0,1,0,9.165,9.161A9.211,9.211,0,0,0,441.092,139.176Z" transform="translate(952.231 307.248)"/><path class="b" d="M429.315,138.333A11.942,11.942,0,1,0,441.3,150.259,12.016,12.016,0,0,0,429.315,138.333Z" transform="translate(919.161 305.327)"/><path class="b" d="M416.077,138.144a12.563,12.563,0,1,0,12.549,12.545A12.6,12.6,0,0,0,416.077,138.144Z" transform="translate(887.579 304.896)"/><path class="b" d="M402.484,138.106a12.688,12.688,0,1,0,12.67,12.67A12.667,12.667,0,0,0,402.484,138.106Z" transform="translate(856.385 304.81)"/><path class="b" d="M388.45,138.258a12.19,12.19,0,1,0,12.175,12.172A12.173,12.173,0,0,0,388.45,138.258Z" transform="translate(825.536 305.156)"/><path class="b" d="M373.841,138.683a10.809,10.809,0,1,0,10.811,10.778A10.811,10.811,0,0,0,373.841,138.683Z" transform="translate(795.616 306.125)"/><path class="b" d="M360.678,138.485a11.445,11.445,0,1,0,11.4,11.427A11.478,11.478,0,0,0,360.678,138.485Z" transform="translate(766.499 305.674)"/><path class="b" d="M346.216,138.8a10.435,10.435,0,1,0,10.4,10.4A10.385,10.385,0,0,0,346.216,138.8Z" transform="translate(736.482 306.387)"/><path class="b" d="M330.321,139.782a7.222,7.222,0,1,0,7.207,7.174A7.185,7.185,0,0,0,330.321,139.782Z" transform="translate(707.966 308.629)"/><path class="b" d="M316.96,139.631a7.671,7.671,0,1,0,7.732,7.67A7.649,7.649,0,0,0,316.96,139.631Z" transform="translate(676.84 308.285)"/><path class="b" d="M302.8,139.84a6.973,6.973,0,1,0,6.988,6.984A7.012,7.012,0,0,0,302.8,139.84Z" transform="translate(646.605 308.762)"/><path class="b" d="M290.58,139.214a9.07,9.07,0,1,0,9.07,9.037A9.027,9.027,0,0,0,290.58,139.214Z" transform="translate(614.398 307.335)"/><path class="b" d="M276.945,139.214a9.07,9.07,0,1,0,9.1,9.037A9.08,9.08,0,0,0,276.945,139.214Z" transform="translate(583.578 307.335)"/><path class="e" d="M261.992,139.782a7.222,7.222,0,1,0,7.237,7.174A7.194,7.194,0,0,0,261.992,139.782Z" transform="translate(554.141 308.629)"/><path class="b" d="M248.38,139.745a7.314,7.314,0,1,0,7.332,7.3A7.334,7.334,0,0,0,248.38,139.745Z" transform="translate(523.298 308.545)"/><path class="b" d="M234.721,139.745a7.314,7.314,0,1,0,7.312,7.3A7.348,7.348,0,0,0,234.721,139.745Z" transform="translate(492.534 308.545)"/><path class="b" d="M222.271,139.214a9.07,9.07,0,1,0,9.1,9.037A9.07,9.07,0,0,0,222.271,139.214Z" transform="translate(460.559 307.335)"/><path class="b" d="M207.908,139.518a8.074,8.074,0,1,0,0,16.149,8.075,8.075,0,0,0,0-16.149Z" transform="translate(430.513 308.028)"/><path class="b" d="M193.017,140.029a6.388,6.388,0,0,0-6.348,6.364,6.335,6.335,0,1,0,12.67,0A6.377,6.377,0,0,0,193.017,140.029Z" transform="translate(400.945 309.192)"/><path class="b" d="M179.3,140.086a6.227,6.227,0,1,0,6.21,6.178A6.248,6.248,0,0,0,179.3,140.086Z" transform="translate(370.24 309.322)"/><path class="b" d="M165.582,140.086a6.227,6.227,0,1,0,6.214,6.178A6.226,6.226,0,0,0,165.582,140.086Z" transform="translate(339.484 309.322)"/><path class="b" d="M151.535,140.275a5.64,5.64,0,0,0-5.669,5.558,5.7,5.7,0,0,0,5.669,5.653,5.627,5.627,0,0,0,5.574-5.653A5.568,5.568,0,0,0,151.535,140.275Z" transform="translate(309.135 309.753)"/><path class="b" d="M140.15,139.233a8.976,8.976,0,1,0,8.961,8.975A8.979,8.979,0,0,0,140.15,139.233Z" transform="translate(276.061 307.378)"/><path class="b" d="M126.481,139.233a8.976,8.976,0,1,0,8.981,8.975A8.99,8.99,0,0,0,126.481,139.233Z" transform="translate(245.305 307.378)"/><path class="b" d="M112.462,139.413a8.434,8.434,0,1,0,8.417,8.384A8.388,8.388,0,0,0,112.462,139.413Z" transform="translate(214.915 307.788)"/><path class="b" d="M97.991,139.745a7.314,7.314,0,1,0,7.345,7.3A7.353,7.353,0,0,0,97.991,139.745Z" transform="translate(187.279 308.545)"/><path class="b" d="M82.647,140.5a4.816,4.816,0,1,0,0,9.63,4.815,4.815,0,1,0,0-9.63Z" transform="translate(157.835 310.27)"/><path class="b" d="M73.311,138.56a11.2,11.2,0,1,0,11.244,11.181A11.23,11.23,0,0,0,73.311,138.56Z" transform="translate(122.292 305.844)"/><path class="b" d="M59.492,138.627a10.963,10.963,0,1,0,10.916,10.962A10.985,10.985,0,0,0,59.492,138.627Z" transform="translate(91.323 305.997)"/><path class="b" d="M44.549,139.214a9.07,9.07,0,1,0,9.04,9.037A9.083,9.083,0,0,0,44.549,139.214Z" transform="translate(61.446 307.335)"/><path class="b" d="M29.39,139.84a6.973,6.973,0,1,0,6.958,6.984A7.013,7.013,0,0,0,29.39,139.84Z" transform="translate(31.755 308.762)"/><path class="b" d="M14.689,140.313a5.411,5.411,0,0,0-5.479,5.433,5.466,5.466,0,1,0,5.479-5.433Z" transform="translate(1.652 309.839)"/><path class="b" d="M453.854,125.887a7.95,7.95,0,1,0,7.951,7.919A7.909,7.909,0,0,0,453.854,125.887Z" transform="translate(984.289 276.963)"/><path class="b" d="M440.207,125.887a7.95,7.95,0,1,0,7.984,7.919A7.919,7.919,0,0,0,440.207,125.887Z" transform="translate(953.115 276.963)"/><path class="f" d="M428.151,125.148a10.342,10.342,0,1,0,10.339,10.342A10.325,10.325,0,0,0,428.151,125.148Z" transform="translate(920.326 275.279)"/><path class="b" d="M414.826,125a10.839,10.839,0,1,0,10.808,10.84A10.816,10.816,0,0,0,414.826,125Z" transform="translate(888.83 274.933)"/><path class="b" d="M401.19,125a10.839,10.839,0,1,0,10.775,10.84A10.844,10.844,0,0,0,401.19,125Z" transform="translate(857.679 274.933)"/><path class="b" d="M387.219,125.11a10.436,10.436,0,1,0,10.5,10.466A10.419,10.419,0,0,0,387.219,125.11Z" transform="translate(826.767 275.192)"/><path class="c" d="M373.084,125.356a9.691,9.691,0,1,0,9.66,9.66A9.683,9.683,0,0,0,373.084,125.356Z" transform="translate(796.373 275.753)"/><path class="b" d="M355.649,127.023a4.209,4.209,0,1,0,4.194,4.194A4.179,4.179,0,0,0,355.649,127.023Z" transform="translate(771.564 279.552)"/><path class="b" d="M342.869,126.6a5.628,5.628,0,0,0-5.591,5.594,5.574,5.574,0,1,0,11.148,0A5.621,5.621,0,0,0,342.869,126.6Z" transform="translate(739.851 278.579)"/><path class="b" d="M329.61,126.408a6.227,6.227,0,0,0,0,12.454,6.227,6.227,0,1,0,0-12.454Z" transform="translate(708.68 278.15)"/><path class="b" d="M316.012,126.379a6.353,6.353,0,0,0-6.309,6.305,6.338,6.338,0,1,0,12.677,0A6.307,6.307,0,0,0,316.012,126.379Z" transform="translate(677.793 278.084)"/><path class="b" d="M302.2,126.445a6.1,6.1,0,1,0,6.086,6.089A6.1,6.1,0,0,0,302.2,126.445Z" transform="translate(647.211 278.235)"/><path class="f" d="M287.148,127.061a4.084,4.084,0,1,0,4.1,4.069A4.069,4.069,0,0,0,287.148,127.061Z" transform="translate(617.841 279.639)"/><path class="b" d="M273.793,126.91a4.581,4.581,0,1,0,4.6,4.564A4.549,4.549,0,0,0,273.793,126.91Z" transform="translate(586.738 279.294)"/><path class="b" d="M260.827,126.6a5.583,5.583,0,0,0-5.561,5.594,5.56,5.56,0,1,0,11.119,0A5.621,5.621,0,0,0,260.827,126.6Z" transform="translate(555.308 278.579)"/><path class="b" d="M248.854,125.887a7.95,7.95,0,1,0,7.951,7.919A7.972,7.972,0,0,0,248.854,125.887Z" transform="translate(522.824 276.963)"/><path class="b" d="M236.018,125.517a9.145,9.145,0,0,0-9.211,9.132,9.2,9.2,0,1,0,18.4,0A9.123,9.123,0,0,0,236.018,125.517Z" transform="translate(491.237 276.12)"/><path class="b" d="M222.1,125.6a8.868,8.868,0,1,0,8.791,8.853A8.839,8.839,0,0,0,222.1,125.6Z" transform="translate(460.73 276.314)"/><path class="b" d="M206.729,126.379a6.312,6.312,0,0,0-6.4,6.305,6.345,6.345,0,1,0,12.69,0A6.3,6.3,0,0,0,206.729,126.379Z" transform="translate(431.689 278.084)"/><path class="b" d="M193.366,126.228a6.832,6.832,0,1,0,6.817,6.8A6.819,6.819,0,0,0,193.366,126.228Z" transform="translate(400.597 277.74)"/><path class="b" d="M179.773,126.19a6.958,6.958,0,1,0,6.909,6.925A6.917,6.917,0,0,0,179.773,126.19Z" transform="translate(369.767 277.654)"/><path class="b" d="M168.4,125.148a10.342,10.342,0,1,0,10.3,10.342A10.295,10.295,0,0,0,168.4,125.148Z" transform="translate(336.679 275.279)"/><path class="b" d="M154.364,125.356a9.691,9.691,0,1,0,9.643,9.66A9.669,9.669,0,0,0,154.364,125.356Z" transform="translate(306.32 275.753)"/><path class="b" d="M141.068,125.148A10.342,10.342,0,1,0,151.41,135.49,10.3,10.3,0,0,0,141.068,125.148Z" transform="translate(275.147 275.279)"/><path class="b" d="M127.344,125.205a10.186,10.186,0,1,0,10.237,10.155A10.164,10.164,0,0,0,127.344,125.205Z" transform="translate(244.446 275.409)"/><path class="b" d="M113.262,125.384a9.583,9.583,0,1,0,9.548,9.568A9.584,9.584,0,0,0,113.262,125.384Z" transform="translate(214.121 275.817)"/><path class="b" d="M102.491,124.1A13.806,13.806,0,1,0,116.3,137.887,13.785,13.785,0,0,0,102.491,124.1Z" transform="translate(180.444 272.881)"/><path class="c" d="M87.31,124.769a11.585,11.585,0,1,0,11.539,11.585A11.619,11.619,0,0,0,87.31,124.769Z" transform="translate(153.172 274.415)"/><path class="b" d="M74.619,124.324a13.044,13.044,0,1,0,13.044,13.044A13.063,13.063,0,0,0,74.619,124.324Z" transform="translate(120.984 273.401)"/><path class="b" d="M60.712,124.438a12.672,12.672,0,1,0,12.657,12.67A12.678,12.678,0,0,0,60.712,124.438Z" transform="translate(90.104 273.661)"/><path class="b" d="M45.68,125.034A10.716,10.716,0,1,0,56.35,135.75,10.76,10.76,0,0,0,45.68,125.034Z" transform="translate(60.315 275.019)"/><path class="b" d="M30.352,125.754a8.355,8.355,0,1,0,8.338,8.355A8.409,8.409,0,0,0,30.352,125.754Z" transform="translate(30.793 276.66)"/><path class="b" d="M15.469,126.3a6.583,6.583,0,1,0,6.538,6.551A6.566,6.566,0,0,0,15.469,126.3Z" transform="translate(0.873 277.913)"/><path class="b" d="M452.776,112.7a6.322,6.322,0,1,0,0,12.644,6.322,6.322,0,0,0,0-12.644Z" transform="translate(985.367 246.913)"/><path class="e" d="M439.061,112.7a6.322,6.322,0,1,0,6.335,6.335A6.315,6.315,0,0,0,439.061,112.7Z" transform="translate(954.262 246.913)"/><path class="b" d="M426.793,112.1a8.294,8.294,0,1,0,8.352,8.293A8.32,8.32,0,0,0,426.793,112.1Z" transform="translate(921.684 245.552)"/><path class="b" d="M413.575,111.915a8.945,8.945,0,1,0,8.975,8.912A8.988,8.988,0,0,0,413.575,111.915Z" transform="translate(890.081 245.121)"/><path class="b" d="M399.916,111.915a8.945,8.945,0,1,0,8.883,8.912A8.946,8.946,0,0,0,399.916,111.915Z" transform="translate(858.953 245.121)"/><path class="b" d="M380.765,114.3a1.088,1.088,0,0,0-1.118,1.085,1.135,1.135,0,0,0,2.269,0A1.1,1.1,0,0,0,380.765,114.3Z" transform="translate(833.221 250.561)"/><path class="b" d="M367.557,114.1a1.687,1.687,0,0,0-1.767,1.738,1.7,1.7,0,0,0,1.767,1.741,1.738,1.738,0,0,0,1.741-1.741A1.718,1.718,0,0,0,367.557,114.1Z" transform="translate(801.641 250.108)"/><path class="b" d="M355.3,113.5a3.727,3.727,0,1,0,3.666,3.725A3.749,3.749,0,0,0,355.3,113.5Z" transform="translate(771.913 248.727)"/><path class="b" d="M313.14,113.951a2.263,2.263,0,0,0-2.177,2.236,2.238,2.238,0,0,0,4.476,0A2.264,2.264,0,0,0,313.14,113.951Z" transform="translate(680.677 249.761)"/><path class="b" d="M298.312,114.482a.486.486,0,0,0-.5.5.456.456,0,0,0,.5.5.5.5,0,0,0,.528-.5A.538.538,0,0,0,298.312,114.482Z" transform="translate(651.114 250.971)"/><path class="b" d="M286.371,113.724a2.983,2.983,0,0,0-2.981,2.981,2.982,2.982,0,0,0,5.964,0A3,3,0,0,0,286.371,113.724Z" transform="translate(618.621 249.244)"/><path class="b" d="M273.88,113.2a4.647,4.647,0,0,0-4.689,4.689,4.706,4.706,0,1,0,9.411,0A4.693,4.693,0,0,0,273.88,113.2Z" transform="translate(586.651 248.057)"/><path class="b" d="M261.818,112.512a6.973,6.973,0,1,0,0,13.945,6.973,6.973,0,1,0,0-13.945Z" transform="translate(554.315 246.482)"/><path class="b" d="M248.724,112.256a7.8,7.8,0,1,0,7.827,7.794A7.767,7.767,0,0,0,248.724,112.256Z" transform="translate(522.953 245.898)"/><path class="b" d="M233.155,113.09a5.067,5.067,0,0,0-5.092,5.059,5.092,5.092,0,1,0,10.185,0A5.069,5.069,0,0,0,233.155,113.09Z" transform="translate(494.1 247.799)"/><path class="b" d="M220.35,112.7a6.322,6.322,0,1,0,6.335,6.335A6.343,6.343,0,0,0,220.35,112.7Z" transform="translate(462.478 246.913)"/><path class="b" d="M207.215,112.474a7.1,7.1,0,1,0,7.02,7.079A7.07,7.07,0,0,0,207.215,112.474Z" transform="translate(431.204 246.395)"/><path class="b" d="M182.223,111.432a10.482,10.482,0,1,0,10.4,10.5A10.531,10.531,0,0,0,182.223,111.432Z" transform="translate(367.325 244.021)"/><path class="b" d="M169.014,111.214a11.2,11.2,0,1,0,11.165,11.211A11.187,11.187,0,0,0,169.014,111.214Z" transform="translate(336.066 243.524)"/><path class="b" d="M154.977,111.4a10.593,10.593,0,1,0,10.529,10.591A10.622,10.622,0,0,0,154.977,111.4Z" transform="translate(305.71 243.954)"/><path class="b" d="M141.943,111.1a11.568,11.568,0,1,0,11.6,11.581A11.589,11.589,0,0,0,141.943,111.1Z" transform="translate(274.277 243.266)"/><path class="b" d="M129.924,110.409a13.9,13.9,0,1,0,13.932,13.85A13.871,13.871,0,0,0,129.924,110.409Z" transform="translate(241.883 241.689)"/><path class="b" d="M116.694,110.2A14.537,14.537,0,1,0,131.2,124.736,14.509,14.509,0,0,0,116.694,110.2Z" transform="translate(210.713 241.213)"/><path class="b" d="M103.237,110.077a14.924,14.924,0,1,0,14.939,14.939A14.925,14.925,0,0,0,103.237,110.077Z" transform="translate(179.705 240.933)"/><path class="b" d="M87.957,110.8a12.58,12.58,0,1,0,12.532,12.578A12.53,12.53,0,0,0,87.957,110.8Z" transform="translate(152.525 242.573)"/><path class="b" d="M75.708,110.153a14.677,14.677,0,1,0,14.69,14.69A14.647,14.647,0,0,0,75.708,110.153Z" transform="translate(119.894 241.106)"/><path class="b" d="M61.931,110.238a14.413,14.413,0,1,0,14.427,14.411A14.411,14.411,0,0,0,61.931,110.238Z" transform="translate(88.884 241.299)"/><path class="b" d="M46.717,110.911a12.191,12.191,0,1,0,12.175,12.2A12.181,12.181,0,0,0,46.717,110.911Z" transform="translate(59.278 242.833)"/><path class="b" d="M31.1,111.763a9.443,9.443,0,0,0,0,18.887,9.443,9.443,0,1,0,0-18.887Z" transform="translate(30.048 244.775)"/><path class="b" d="M16.07,112.351a7.485,7.485,0,1,0,7.391,7.483A7.483,7.483,0,0,0,16.07,112.351Z" transform="translate(0.271 246.115)"/><path class="b" d="M437.787,99.6a4.489,4.489,0,0,0,0,8.978,4.489,4.489,0,0,0,0-8.978Z" transform="translate(955.536 217.058)"/><path class="b" d="M286.459,100.018a3.116,3.116,0,0,0-3.108,3.105,3.108,3.108,0,1,0,3.108-3.105Z" transform="translate(618.532 218.008)"/><path class="b" d="M273.707,99.6a4.489,4.489,0,1,0,4.472,4.473A4.427,4.427,0,0,0,273.707,99.6Z" transform="translate(586.824 217.058)"/><path class="b" d="M258.626,100.236a2.455,2.455,0,0,0-2.394,2.39,2.381,2.381,0,0,0,2.394,2.328,2.327,2.327,0,0,0,2.331-2.328A2.4,2.4,0,0,0,258.626,100.236Z" transform="translate(557.513 218.505)"/><path class="b" d="M246.046,99.753a3.991,3.991,0,0,0,0,7.981,3.991,3.991,0,1,0,0-7.981Z" transform="translate(525.633 217.404)"/><path class="b" d="M233.429,99.308a5.464,5.464,0,1,0,5.466,5.433A5.433,5.433,0,0,0,233.429,99.308Z" transform="translate(493.826 216.39)"/><path class="b" d="M208.694,98.171a9.193,9.193,0,1,0,9.161,9.161A9.182,9.182,0,0,0,208.694,98.171Z" transform="translate(429.728 213.799)"/><path class="b" d="M195.672,97.867a10.173,10.173,0,1,0,10.142,10.158A10.173,10.173,0,0,0,195.672,97.867Z" transform="translate(398.296 213.106)"/><path class="b" d="M182.569,97.631A10.932,10.932,0,1,0,193.5,108.563,10.969,10.969,0,0,0,182.569,97.631Z" transform="translate(366.98 212.569)"/><path class="b" d="M169.358,97.394A11.694,11.694,0,1,0,181.034,109.1,11.714,11.714,0,0,0,169.358,97.394Z" transform="translate(335.723 212.028)"/><path class="b" d="M155.5,97.517a11.306,11.306,0,1,0,11.273,11.306A11.382,11.382,0,0,0,155.5,97.517Z" transform="translate(305.193 212.309)"/><path class="b" d="M143.55,96.731a13.9,13.9,0,1,0,13.932,13.883A13.846,13.846,0,0,0,143.55,96.731Z" transform="translate(272.68 210.517)"/><path class="b" d="M117.125,96.362a15.124,15.124,0,1,0,15.126,15.093A15.088,15.088,0,0,0,117.125,96.362Z" transform="translate(210.286 209.677)"/><path class="b" d="M103.7,96.247a15.5,15.5,0,1,0,15.562,15.47A15.487,15.487,0,0,0,103.7,96.247Z" transform="translate(179.244 209.414)"/><path class="b" d="M88.229,97.034a12.879,12.879,0,0,0-12.936,12.89,12.928,12.928,0,1,0,25.855,0A12.884,12.884,0,0,0,88.229,97.034Z" transform="translate(152.253 211.208)"/><path class="b" d="M76.595,96.124A15.888,15.888,0,1,0,92.541,112,15.877,15.877,0,0,0,76.595,96.124Z" transform="translate(119.008 209.134)"/><path class="b" d="M62.977,96.124A15.888,15.888,0,1,0,78.909,112,15.907,15.907,0,0,0,62.977,96.124Z" transform="translate(87.838 209.134)"/><path class="b" d="M47.289,96.977a13.093,13.093,0,1,0,13,13.077A13.068,13.068,0,0,0,47.289,96.977Z" transform="translate(58.706 211.078)"/><path class="b" d="M31.484,97.943a9.924,9.924,0,1,0,0,19.848,9.924,9.924,0,0,0,0-19.848Z" transform="translate(29.661 213.28)"/><path class="b" d="M16.341,98.559a7.873,7.873,0,1,0,7.784,7.889A7.883,7.883,0,0,0,16.341,98.559Z" transform="translate(0 214.683)"/><path class="b" d="M258.626,86.577a2.381,2.381,0,0,0-2.394,2.328,2.429,2.429,0,0,0,2.394,2.456,2.378,2.378,0,0,0,2.331-2.456A2.327,2.327,0,0,0,258.626,86.577Z" transform="translate(557.513 187.377)"/><path class="b" d="M232.649,85.971a4.363,4.363,0,1,0,4.345,4.315A4.376,4.376,0,0,0,232.649,85.971Z" transform="translate(494.606 185.996)"/><path class="b" d="M220.783,85.184a6.956,6.956,0,1,0,6.974,6.9A6.962,6.962,0,0,0,220.783,85.184Z" transform="translate(462.046 184.202)"/><path class="b" d="M207.821,84.872a7.966,7.966,0,1,0,0,15.933,7.966,7.966,0,0,0,0-15.933Z" transform="translate(430.599 183.491)"/><path class="b" d="M195.672,84.18a10.236,10.236,0,1,0,10.142,10.188A10.158,10.158,0,0,0,195.672,84.18Z" transform="translate(398.296 181.914)"/><path class="e" d="M182.569,83.953A10.963,10.963,0,1,0,193.5,94.885,10.969,10.969,0,0,0,182.569,83.953Z" transform="translate(366.98 181.397)"/><path class="b" d="M169.358,83.745a11.662,11.662,0,1,0,11.676,11.614A11.614,11.614,0,0,0,169.358,83.745Z" transform="translate(335.723 180.923)"/><path class="b" d="M155.594,83.82a11.429,11.429,0,1,0,11.414,11.368A11.474,11.474,0,0,0,155.594,83.82Z" transform="translate(305.096 181.094)"/><path class="b" d="M142.729,83.432a12.672,12.672,0,1,0,12.66,12.64A12.663,12.663,0,0,0,142.729,83.432Z" transform="translate(273.495 180.209)"/><path class="b" d="M128.78,83.546A12.3,12.3,0,1,0,141.1,95.813,12.317,12.317,0,0,0,128.78,83.546Z" transform="translate(243.02 180.469)"/><path class="b" d="M117.223,82.626a15.313,15.313,0,1,0,15.25,15.283A15.349,15.349,0,0,0,117.223,82.626Z" transform="translate(210.189 178.373)"/><path class="b" d="M103.7,82.55a15.562,15.562,0,1,0,15.562,15.532A15.521,15.521,0,0,0,103.7,82.55Z" transform="translate(179.244 178.199)"/><path class="b" d="M88.411,83.29A13.154,13.154,0,1,0,101.582,96.4,13.166,13.166,0,0,0,88.411,83.29Z" transform="translate(152.071 179.886)"/><path class="b" d="M76.595,82.447a15.933,15.933,0,1,0,15.946,15.87A15.875,15.875,0,0,0,76.595,82.447Z" transform="translate(119.008 177.965)"/><path class="b" d="M62.89,82.485A15.808,15.808,0,1,0,78.7,98.231,15.771,15.771,0,0,0,62.89,82.485Z" transform="translate(87.925 178.051)"/><path class="b" d="M47.2,83.356a12.921,12.921,0,1,0,12.877,12.89A12.928,12.928,0,0,0,47.2,83.356Z" transform="translate(58.791 180.036)"/><path class="b" d="M16.243,84.947A7.721,7.721,0,1,0,23.9,92.62,7.675,7.675,0,0,0,16.243,84.947Z" transform="translate(0.098 183.662)"/><path class="b" d="M219,72.292a4.381,4.381,0,1,0,4.335,4.413A4.389,4.389,0,0,0,219,72.292Z" transform="translate(463.824 154.822)"/><path class="b" d="M206.3,71.885a5.715,5.715,0,1,0,5.715,5.748A5.743,5.743,0,0,0,206.3,71.885Z" transform="translate(432.119 153.894)"/><path class="b" d="M193.894,71.317a7.6,7.6,0,0,0-7.61,7.61,7.6,7.6,0,0,0,15.192,0A7.589,7.589,0,0,0,193.894,71.317Z" transform="translate(400.07 152.6)"/><path class="b" d="M180.3,71.279a7.671,7.671,0,1,0,0,15.342,7.671,7.671,0,0,0,0-15.342Z" transform="translate(369.24 152.513)"/><path class="b" d="M168.927,70.247a11.073,11.073,0,1,0,11.106,11.119A11.058,11.058,0,0,0,168.927,70.247Z" transform="translate(336.152 150.161)"/><path class="b" d="M155.1,70.313a10.84,10.84,0,1,0,10.778,10.9A10.816,10.816,0,0,0,155.1,70.313Z" transform="translate(305.59 150.312)"/><path class="b" d="M142.03,70.057A11.694,11.694,0,1,0,153.693,81.8,11.69,11.69,0,0,0,142.03,70.057Z" transform="translate(274.191 149.728)"/><path class="b" d="M128.347,70.057A11.694,11.694,0,1,0,140.01,81.8,11.684,11.684,0,0,0,128.347,70.057Z" transform="translate(243.45 149.728)"/><path class="b" d="M114.039,70.35a10.716,10.716,0,1,0,10.67,10.781A10.747,10.747,0,0,0,114.039,70.35Z" transform="translate(213.349 150.396)"/><path class="b" d="M99.178,70.862a9.07,9.07,0,1,0,9.116,9.1A9.081,9.081,0,0,0,99.178,70.862Z" transform="translate(186.091 151.563)"/><path class="b" d="M87.871,69.839A12.424,12.424,0,1,0,100.295,82.3,12.377,12.377,0,0,0,87.871,69.839Z" transform="translate(152.611 149.231)"/><path class="b" d="M75.708,69.166A14.631,14.631,0,1,0,90.4,83.83,14.581,14.581,0,0,0,75.708,69.166Z" transform="translate(119.894 147.698)"/><path class="b" d="M61.856,69.261a14.288,14.288,0,1,0,14.3,14.352A14.344,14.344,0,0,0,61.856,69.261Z" transform="translate(88.96 147.914)"/><path class="b" d="M46.63,69.943a12.067,12.067,0,1,0,0,24.133,12.067,12.067,0,0,0,0-24.133Z" transform="translate(59.365 149.468)"/><path class="b" d="M30.915,70.824a9.194,9.194,0,1,0,9.227,9.227A9.2,9.2,0,0,0,30.915,70.824Z" transform="translate(30.231 151.476)"/><path class="b" d="M15.974,71.374A7.353,7.353,0,0,0,8.646,78.8a7.33,7.33,0,0,0,14.66,0A7.4,7.4,0,0,0,15.974,71.374Z" transform="translate(0.367 152.73)"/><path class="b" d="M204.895,58.822a3.728,3.728,0,1,0,3.7,3.7A3.763,3.763,0,0,0,204.895,58.822Z" transform="translate(433.521 124.124)"/><path class="b" d="M191.012,58.9a3.477,3.477,0,0,0,0,6.955,3.477,3.477,0,1,0,0-6.955Z" transform="translate(402.945 124.3)"/><path class="b" d="M177.638,58.785a3.851,3.851,0,1,0,3.836,3.82A3.822,3.822,0,0,0,177.638,58.785Z" transform="translate(371.896 124.04)"/><path class="b" d="M166.272,57.762a7.206,7.206,0,1,0,7.22,7.174A7.207,7.207,0,0,0,166.272,57.762Z" transform="translate(338.797 121.708)"/><path class="b" d="M151.75,58.141a5.948,5.948,0,1,0,5.948,5.932A5.94,5.94,0,0,0,151.75,58.141Z" transform="translate(308.922 122.572)"/><path class="b" d="M127.559,56.739a10.56,10.56,0,1,0,10.548,10.529A10.507,10.507,0,0,0,127.559,56.739Z" transform="translate(244.233 119.377)"/><path class="b" d="M113.421,56.966a9.816,9.816,0,1,0,9.8,9.784A9.8,9.8,0,0,0,113.421,56.966Z" transform="translate(213.962 119.894)"/><path class="b" d="M98.866,57.317a8.619,8.619,0,1,0,8.6,8.634A8.6,8.6,0,0,0,98.866,57.317Z" transform="translate(186.404 120.694)"/><path class="b" d="M68.908,58.472a4.861,4.861,0,0,0,0,9.722,4.861,4.861,0,0,0,0-9.722Z" transform="translate(126.695 123.326)"/><path class="b" d="M60.712,56.085A12.673,12.673,0,1,0,73.368,68.758,12.721,12.721,0,0,0,60.712,56.085Z" transform="translate(90.104 117.887)"/><path class="b" d="M45.68,56.7A10.685,10.685,0,1,0,56.35,67.354,10.726,10.726,0,0,0,45.68,56.7Z" transform="translate(60.315 119.29)"/><path class="b" d="M30.352,57.4a8.355,8.355,0,1,0,8.338,8.355A8.387,8.387,0,0,0,30.352,57.4Z" transform="translate(30.793 120.888)"/><path class="e" d="M15.469,57.951a6.586,6.586,0,1,0,6.538,6.555A6.569,6.569,0,0,0,15.469,57.951Z" transform="translate(0.873 122.139)"/><path class="b" d="M162.6,45.676a1.941,1.941,0,0,0-1.941,1.987,1.972,1.972,0,1,0,3.945,0A1.936,1.936,0,0,0,162.6,45.676Z" transform="translate(342.451 94.165)"/><path class="b" d="M149.439,45.485a2.627,2.627,0,1,0,0,5.253,2.627,2.627,0,0,0,0-5.253Z" transform="translate(311.222 93.729)"/><path class="b" d="M138.067,44.444a6.009,6.009,0,1,0,5.948,6.027A6.042,6.042,0,0,0,138.067,44.444Z" transform="translate(278.132 91.357)"/><path class="b" d="M124.461,44.425a6.1,6.1,0,1,0,6.089,6.089A6.1,6.1,0,0,0,124.461,44.425Z" transform="translate(247.311 91.314)"/><path class="b" d="M112.635,43.639a8.65,8.65,0,1,0,8.666,8.666A8.658,8.658,0,0,0,112.635,43.639Z" transform="translate(214.743 89.522)"/><path class="b" d="M98.3,43.9a7.8,7.8,0,1,0,7.843,7.8A7.8,7.8,0,0,0,98.3,43.9Z" transform="translate(186.967 90.126)"/><path class="b" d="M82.864,44.69a5.233,5.233,0,1,0,5.187,5.22A5.231,5.231,0,0,0,82.864,44.69Z" transform="translate(157.618 91.918)"/><path class="b" d="M68.65,44.908a4.473,4.473,0,0,0,0,8.945,4.473,4.473,0,0,0,0-8.945Z" transform="translate(126.952 92.414)"/><path class="f" d="M54.561,45.107a3.852,3.852,0,0,0-3.84,3.853,3.83,3.83,0,1,0,3.84-3.853Z" transform="translate(96.255 92.868)"/><path class="b" d="M40.219,45.41a2.852,2.852,0,0,0-2.872,2.859,2.85,2.85,0,0,0,5.7,0A2.851,2.851,0,0,0,40.219,45.41Z" transform="translate(65.776 93.558)"/><path class="b" d="M29.39,44.159a6.974,6.974,0,1,0,6.958,6.961A6.97,6.97,0,0,0,29.39,44.159Z" transform="translate(31.755 90.708)"/><path class="b" d="M14.776,44.576a5.607,5.607,0,0,0,0,11.214,5.607,5.607,0,0,0,0-11.214Z" transform="translate(1.566 91.658)"/><path class="b" d="M110.411,30.946a5.451,5.451,0,1,0,5.466,5.466A5.456,5.456,0,0,0,110.411,30.946Z" transform="translate(216.952 60.596)"/><path class="b" d="M82.647,31.135a4.861,4.861,0,1,0,4.83,4.846A4.873,4.873,0,0,0,82.647,31.135Z" transform="translate(157.835 61.026)"/><path class="b" d="M68.37,31.363a4.039,4.039,0,0,0-4.056,4.1,4.086,4.086,0,0,0,4.056,4.132,4.132,4.132,0,0,0,4.145-4.132A4.086,4.086,0,0,0,68.37,31.363Z" transform="translate(127.233 61.546)"/><path class="b" d="M54.44,31.514a3.619,3.619,0,0,0-3.666,3.6A3.71,3.71,0,0,0,54.44,38.78a3.641,3.641,0,0,0,3.571-3.663A3.551,3.551,0,0,0,54.44,31.514Z" transform="translate(96.375 61.89)"/><path class="b" d="M39.615,32a2.043,2.043,0,0,0-2,2.02,1.969,1.969,0,0,0,2,1.958,1.948,1.948,0,0,0,1.958-1.958A2.023,2.023,0,0,0,39.615,32Z" transform="translate(66.38 62.991)"/><path class="b" d="M25.074,32.4a.751.751,0,0,0-.761.682.732.732,0,0,0,.761.715.694.694,0,0,0,.748-.715A.707.707,0,0,0,25.074,32.4Z" transform="translate(36.072 63.921)"/><path class="b" d="M12.629,31.856a2.468,2.468,0,1,0,0,4.935,2.468,2.468,0,0,0,0-4.935Z" transform="translate(3.712 62.669)"/><path class="b" d="M68.208,17.77a3.835,3.835,0,1,0,3.879,3.82A3.847,3.847,0,0,0,68.208,17.77Z" transform="translate(127.394 30.568)"/><path class="b" d="M54.258,17.893a3.457,3.457,0,0,0-3.4,3.417,3.356,3.356,0,0,0,6.712,0A3.428,3.428,0,0,0,54.258,17.893Z" transform="translate(96.558 30.848)"/><path class="d" d="M39.517,18.366a1.892,1.892,0,0,0-1.862,1.866,1.849,1.849,0,1,0,3.7,0A1.886,1.886,0,0,0,39.517,18.366Z" transform="translate(66.478 31.926)"/><path class="b" d="M25.247,18.642a.977.977,0,1,0,1,.961A.978.978,0,0,0,25.247,18.642Z" transform="translate(35.898 32.555)"/><path class="b" d="M54,4.357a2.982,2.982,0,1,0,3,3.043A3.029,3.029,0,0,0,54,4.357Z" transform="translate(96.817 0)"/></g><path class="g" d="M31.484,84.256a9.955,9.955,0,1,0,0,19.91,9.955,9.955,0,0,0,0-19.91Z" transform="translate(21.176 52.912)"/><path class="d" d="M130.615,96.438a14.877,14.877,0,1,0,14.942,14.844A14.822,14.822,0,0,0,130.615,96.438Z" transform="translate(232.712 80.675)"/><path class="c" d="M141.239,56.739a10.56,10.56,0,0,0,0,21.12,10.56,10.56,0,1,0,0-21.12Z" transform="translate(266.492 -9.798)"/><path class="d" d="M83.21,58.207a5.715,5.715,0,1,0,5.715,5.715A5.741,5.741,0,0,0,83.21,58.207Z" transform="translate(148.787 -6.452)"/><path class="f" d="M195.383,111.687a9.691,9.691,0,1,0,9.66,9.66A9.7,9.7,0,0,0,195.383,111.687Z" transform="translate(390.1 115.427)"/><path class="d" d="M328.919,113.033a5.25,5.25,0,1,0,5.22,5.246A5.212,5.212,0,0,0,328.919,113.033Z" transform="translate(700.89 118.494)"/><path class="f" d="M416.834,151.491a13.65,13.65,0,1,0,13.7,13.6A13.671,13.671,0,0,0,416.834,151.491Z" transform="translate(878.337 206.139)"/><path class="h" d="M245.529,86.3a3.263,3.263,0,0,0,0,6.525,3.263,3.263,0,0,0,0-6.525Z" transform="translate(517.666 57.573)"/><path class="e" d="M221.052,98.729a7.33,7.33,0,1,0,7.283,7.332A7.328,7.328,0,0,0,221.052,98.729Z" transform="translate(453.292 85.896)"/></g></svg>