<svg xmlns="http://www.w3.org/2000/svg" width="79.298" height="55.508" viewBox="0 0 79.298 55.508">
  <path id="users-solid" d="M11.895,55.789a7.93,7.93,0,1,0-7.93-7.93A7.937,7.937,0,0,0,11.895,55.789Zm55.508,0a7.93,7.93,0,1,0-7.93-7.93A7.937,7.937,0,0,0,67.4,55.789Zm3.965,3.965h-7.93a7.906,7.906,0,0,0-5.588,2.3,18.124,18.124,0,0,1,9.305,13.555h8.178A3.961,3.961,0,0,0,79.3,71.649V67.684A7.937,7.937,0,0,0,71.368,59.754Zm-31.719,0A13.877,13.877,0,1,0,25.772,45.877,13.87,13.87,0,0,0,39.649,59.754Zm9.516,3.965H48.136a19.159,19.159,0,0,1-16.975,0H30.133A14.277,14.277,0,0,0,15.86,77.993v3.568a5.949,5.949,0,0,0,5.947,5.947H57.491a5.949,5.949,0,0,0,5.947-5.947V77.993A14.277,14.277,0,0,0,49.165,63.719Zm-27.717-1.66a7.906,7.906,0,0,0-5.588-2.3H7.93A7.937,7.937,0,0,0,0,67.684v3.965a3.961,3.961,0,0,0,3.965,3.965H12.13a18.169,18.169,0,0,1,9.317-13.555Z" transform="translate(0 -32)" fill="#012168"/>
</svg>
